# xmcd
#
# Track frame offsets: 
#        187
#        14705
#        28590
#        42247
#        59752
#        80350
#        93985
#        110167
#        124527
#        140670
#        157130
#        177110
#        189715
#
# Disc length: 2768 seconds
#
# Revision: 3
# Processed by: cddbd v1.5.2PL0 Copyright (c) Steve Scherf et al.
# Submitted via: ExactAudioCopy v0.99pb5
#
DISCID=b90ace0d
DTITLE=Alabama - Southern Star
DYEAR=1900
DGENRE=Country
TTITLE0=Song of The South
TTITLE1=Down On The River
TTITLE2=High Cotton
TTITLE3="Ole" Baugh Road
TTITLE4=The Borderline
TTITLE5=I'm Still Dreamin'
TTITLE6=Pete's Music City
TTITLE7=Southern Star
TTITLE8=If I Had You
TTITLE9=She Can
TTITLE10=I Showed Her
TTITLE11=Barefootin'
TTITLE12=Dixie Fire
EXTD=
EXTT0=
EXTT1=
EXTT2=
EXTT3=
EXTT4=
EXTT5=
EXTT6=
EXTT7=
EXTT8=
EXTT9=
EXTT10=
EXTT11=
EXTT12=
PLAYORDER=
